<svg xmlns="http://www.w3.org/2000/svg" viewBox="0 0 720 480" width="720" height="480"><rect width="720" height="480" fill="#1A1B17"/><line x1="40" y1="428" x2="680" y2="428" stroke="#2E302A" stroke-width="4" stroke-linecap="round"/><rect x="130" y="300" width="130" height="30" rx="8" fill="#3A3D35"/><line x1="150" y1="330" x2="150" y2="428" stroke="#3A3D35" stroke-width="12" stroke-linecap="round"/><line x1="240" y1="330" x2="240" y2="428" stroke="#3A3D35" stroke-width="12" stroke-linecap="round"/><line x1="180" y1="410" x2="330" y2="358" stroke="#6E7068" stroke-width="10" stroke-linecap="round"/><polyline points="232,296 276,336 306,364" fill="none" stroke="#8A8C82" stroke-width="20" stroke-linecap="round" stroke-linejoin="round"/><polyline points="330,380 432,318 462,418" fill="none" stroke="#8A8C82" stroke-width="22" stroke-linecap="round" stroke-linejoin="round"/><line x1="232" y1="296" x2="330" y2="380" stroke="#F2F3EE" stroke-width="34" stroke-linecap="round"/><polyline points="330,380 432,318 462,418" fill="none" stroke="#F2F3EE" stroke-width="23" stroke-linecap="round" stroke-linejoin="round"/><polyline points="232,296 276,336 306,364" fill="none" stroke="#F2F3EE" stroke-width="20" stroke-linecap="round" stroke-linejoin="round"/><circle cx="198" cy="282" r="23" fill="#F2F3EE"/><rect x="290" y="342" width="80" height="22" rx="11" fill="#D4FF3A"/></svg>
