<svg xmlns="http://www.w3.org/2000/svg" viewBox="0 0 720 480" width="720" height="480"><rect width="720" height="480" fill="#1A1B17"/><line x1="40" y1="428" x2="680" y2="428" stroke="#2E302A" stroke-width="4" stroke-linecap="round"/><polyline points="526,390 540,418 680,418" fill="none" stroke="#3A3D35" stroke-width="10" stroke-linecap="round" stroke-linejoin="round"/><rect x="598" y="280" width="20" height="130" rx="5" fill="#3A3D35"/><rect x="568" y="318" width="80" height="28" rx="10" fill="#6E7068"/><rect x="562" y="352" width="92" height="30" rx="10" fill="#6E7068"/><rect x="550" y="388" width="120" height="18" rx="6" fill="#3A3D35"/><polyline points="276,221 236,281 206,420 120,422" fill="none" stroke="#D4FF3A" stroke-width="5" stroke-linecap="round" stroke-linejoin="round"/><line x1="528" y1="392" x2="288" y2="223" stroke="#D4FF3A" stroke-width="5" stroke-linecap="round"/><line x1="288" y1="223" x2="276" y2="221" stroke="#D4FF3A" stroke-width="5" stroke-linecap="round"/><polyline points="180,200 223,235 276,221" fill="none" stroke="#8A8C82" stroke-width="20" stroke-linecap="round" stroke-linejoin="round"/><polyline points="226,300 298,339 270,418" fill="none" stroke="#8A8C82" stroke-width="22" stroke-linecap="round" stroke-linejoin="round"/><line x1="180" y1="200" x2="226" y2="300" stroke="#F2F3EE" stroke-width="34" stroke-linecap="round"/><polyline points="226,300 301,334 306,418" fill="none" stroke="#F2F3EE" stroke-width="23" stroke-linecap="round" stroke-linejoin="round"/><polyline points="180,200 234,211 288,223" fill="none" stroke="#F2F3EE" stroke-width="20" stroke-linecap="round" stroke-linejoin="round"/><circle cx="164" cy="165" r="23" fill="#F2F3EE"/></svg>
