<svg xmlns="http://www.w3.org/2000/svg" viewBox="0 0 720 480" width="720" height="480"><rect width="720" height="480" fill="#1A1B17"/><line x1="40" y1="428" x2="680" y2="428" stroke="#2E302A" stroke-width="4" stroke-linecap="round"/><g transform="translate(-20 0)"><line x1="290" y1="420" x2="620" y2="420" stroke="#3A3D35" stroke-width="12" stroke-linecap="round"/><polyline points="318,420 400,356 542,356 590,420" fill="none" stroke="#3A3D35" stroke-width="16" stroke-linecap="round" stroke-linejoin="round"/><line x1="400" y1="356" x2="336" y2="262" stroke="#3A3D35" stroke-width="16" stroke-linecap="round"/><line x1="524" y1="330" x2="498" y2="214" stroke="#3A3D35" stroke-width="16" stroke-linecap="round"/><rect x="296" y="250" width="78" height="18" rx="9" fill="#6E7068"/><rect x="484" y="190" width="42" height="18" rx="9" fill="#6E7068"/><circle cx="542" cy="356" r="50" fill="none" stroke="#D4FF3A" stroke-width="10"/><circle cx="542" cy="356" r="10" fill="#D4FF3A"/><line x1="582" y1="379" x2="502" y2="333" stroke="#6E7068" stroke-width="5" stroke-linecap="round"/><line x1="542" y1="402" x2="542" y2="310" stroke="#6E7068" stroke-width="5" stroke-linecap="round"/><line x1="502" y1="379" x2="582" y2="333" stroke="#6E7068" stroke-width="5" stroke-linecap="round"/><polyline points="430,139 451,190 505,200" fill="none" stroke="#8A8C82" stroke-width="20" stroke-linecap="round" stroke-linejoin="round"/><polyline points="362,226 440,250 400,324" fill="none" stroke="#8A8C82" stroke-width="22" stroke-linecap="round" stroke-linejoin="round"/><line x1="430" y1="139" x2="362" y2="226" stroke="#F2F3EE" stroke-width="34" stroke-linecap="round"/><polyline points="362,226 387,304 400,388" fill="none" stroke="#F2F3EE" stroke-width="23" stroke-linecap="round" stroke-linejoin="round"/><polyline points="430,139 451,190 505,200" fill="none" stroke="#F2F3EE" stroke-width="20" stroke-linecap="round" stroke-linejoin="round"/><circle cx="459" cy="115" r="23" fill="#F2F3EE"/><line x1="400" y1="356" x2="400" y2="388" stroke="#6E7068" stroke-width="8" stroke-linecap="round"/><line x1="400" y1="356" x2="400" y2="324" stroke="#6E7068" stroke-width="8" stroke-linecap="round"/><circle cx="400" cy="356" r="12" fill="#6E7068"/></g></svg>
