<svg xmlns="http://www.w3.org/2000/svg" viewBox="0 0 720 480" width="720" height="480"><rect width="720" height="480" fill="#1A1B17"/><line x1="40" y1="428" x2="680" y2="428" stroke="#2E302A" stroke-width="4" stroke-linecap="round"/><line x1="300" y1="420" x2="620" y2="420" stroke="#3A3D35" stroke-width="14" stroke-linecap="round"/><line x1="410" y1="250" x2="410" y2="420" stroke="#3A3D35" stroke-width="18" stroke-linecap="round"/><line x1="410" y1="320" x2="598" y2="290" stroke="#3A3D35" stroke-width="14" stroke-linecap="round"/><line x1="598" y1="180" x2="598" y2="420" stroke="#3A3D35" stroke-width="16" stroke-linecap="round"/><rect x="346" y="246" width="110" height="28" rx="14" fill="#6E7068"/><circle cx="562" cy="202" r="14" fill="#6E7068"/><circle cx="548" cy="248" r="14" fill="#6E7068"/><polyline points="478,150 494,203 548,212" fill="none" stroke="#8A8C82" stroke-width="20" stroke-linecap="round" stroke-linejoin="round"/><polyline points="400,228 480,214 566,226" fill="none" stroke="#8A8C82" stroke-width="22" stroke-linecap="round" stroke-linejoin="round"/><line x1="478" y1="150" x2="400" y2="228" stroke="#F2F3EE" stroke-width="34" stroke-linecap="round"/><polyline points="400,228 480,214 566,226" fill="none" stroke="#F2F3EE" stroke-width="23" stroke-linecap="round" stroke-linejoin="round"/><polyline points="478,150 494,203 548,212" fill="none" stroke="#F2F3EE" stroke-width="20" stroke-linecap="round" stroke-linejoin="round"/><circle cx="509" cy="128" r="23" fill="#F2F3EE"/></svg>
